<?xml version="1.0" encoding="UTF-8" standalone="no"?>
<svg
   xmlns:dc="http://purl.org/dc/elements/1.1/"
   xmlns:cc="http://creativecommons.org/ns#"
   xmlns:rdf="http://www.w3.org/1999/02/22-rdf-syntax-ns#"
   xmlns:svg="http://www.w3.org/2000/svg"
   xmlns="http://www.w3.org/2000/svg"
   xmlns:sodipodi="http://sodipodi.sourceforge.net/DTD/sodipodi-0.dtd"
   xmlns:inkscape="http://www.inkscape.org/namespaces/inkscape"
   height="128pt"
   viewBox="0 0 128 128.00221"
   width="128pt"
   version="1.1"
   id="svg48"
   sodipodi:docname="pkg.svg"
   inkscape:version="1.0.2-2 (e86c870879, 2021-01-15)">
  <metadata
     id="metadata54">
    <rdf:RDF>
      <cc:Work
         rdf:about="">
        <dc:format>image/svg+xml</dc:format>
        <dc:type
           rdf:resource="http://purl.org/dc/dcmitype/StillImage" />
        <dc:title />
      </cc:Work>
    </rdf:RDF>
  </metadata>
  <defs
     id="defs52" />
  <sodipodi:namedview
     pagecolor="#ffffff"
     bordercolor="#666666"
     borderopacity="1"
     objecttolerance="10"
     gridtolerance="10"
     guidetolerance="10"
     inkscape:pageopacity="0"
     inkscape:pageshadow="2"
     inkscape:window-width="3840"
     inkscape:window-height="1137"
     id="namedview50"
     showgrid="false"
     inkscape:zoom="4.3157896"
     inkscape:cx="4.1320832"
     inkscape:cy="120.04846"
     inkscape:window-x="-8"
     inkscape:window-y="-8"
     inkscape:window-maximized="1"
     inkscape:current-layer="svg48"
     inkscape:document-rotation="0" />
  <path
     d="m 107.82137,82.413966 -2.94884,2.800322 c 1.18218,1.11916 1.83285,2.609124 1.83285,4.192751 0,1.583622 -0.65067,3.075525 -1.83285,4.192756 l 2.94884,2.800322 c 1.96827,-1.867533 3.05473,-4.349186 3.05473,-6.993078 0,-2.64389 -1.08646,-5.123613 -3.05473,-6.993073 z m 0,0"
     id="path2"
     inkscape:connector-curvature="0"
     style="fill:#2f4f4f;fill-opacity:1;stroke-width:0.2538465" />
  <path
     d="m 110.77226,79.617508 c 2.75435,2.616851 4.27459,6.093112 4.27459,9.789531 0,3.69642 -1.52023,7.172681 -4.27459,9.789515 l 2.94782,2.795496 c 3.54553,-3.363272 5.49751,-7.831225 5.49751,-12.585011 0,-4.753781 -1.95198,-9.221738 -5.49751,-12.585016 z m 0,0"
     id="path4"
     inkscape:connector-curvature="0"
     style="fill:#2f4f4f;fill-opacity:1;stroke-width:0.2538465" />
  <path
     d="m 22.174602,82.415903 c -1.968272,1.867523 -3.05474,4.351108 -3.05474,6.991136 0,2.643892 1.086468,5.125545 3.05474,6.993078 l 2.948842,-2.800322 c -1.182184,-1.117231 -1.832845,-2.607198 -1.832845,-4.192756 0,-1.583627 0.650661,-3.075528 1.832845,-4.194687 z m 0,0"
     id="path6"
     inkscape:connector-curvature="0"
     style="fill:#2f4f4f;fill-opacity:1;stroke-width:0.2538465" />
  <path
     d="m 19.223722,79.617508 -2.947824,-2.795485 c -3.545535,3.363278 -5.497514,7.833162 -5.497514,12.585016 0,4.75186 1.951979,9.221739 5.497514,12.585011 l 2.947824,-2.795496 c -2.754358,-2.616834 -4.274598,-6.093095 -4.274598,-9.789515 0,-3.696419 1.52024,-7.17268 4.274598,-9.789531 z m 0,0"
     id="path8"
     inkscape:connector-curvature="0"
     style="fill:#2f4f4f;fill-opacity:1;stroke-width:0.2538465" />
  <path
     d="m 14.085648,28.101314 -2.696317,2.55698 2.948845,2.796458 7.730528,-7.331047 -7.730528,-7.33104 -2.948845,2.796459 2.696317,2.556981 h -3.307264 c -3.4488006,0 -6.2561072,2.66223 -6.2561072,5.932809 V 49.854961 H 8.6930143 V 30.078914 c 0,-1.091156 0.934751,-1.9776 2.0853697,-1.9776 z m 0,0"
     id="path10"
     inkscape:connector-curvature="0"
     style="fill:#2f4f4f;fill-opacity:1;stroke-width:0.2538465" />
  <path
     d="m 119.21759,24.146105 h -3.30725 l 2.69631,-2.556981 -2.94885,-2.796459 -7.73052,7.33104 7.73052,7.331047 2.94885,-2.796458 -2.69631,-2.55698 h 3.30725 c 1.15165,0 2.08537,0.886444 2.08537,1.9776 v 19.776047 h 4.17075 V 30.078914 c 0,-3.270579 -2.80732,-5.932809 -6.25612,-5.932809 z m 0,0"
     id="path12"
     inkscape:connector-curvature="0"
     style="fill:#2f4f4f;fill-opacity:1;stroke-width:0.2538465" />
  <path
     d="m 98.363891,87.429439 v 0.219191 c 0,4.044042 -0.802372,7.997324 -2.387784,11.748788 l -0.127281,0.303195 6.685814,-1.741978 V 80.74343 L 97.1756,79.190706 c 0.750451,2.632301 1.188291,5.385304 1.188291,8.238733 z m 0,0"
     id="path14"
     inkscape:connector-curvature="0"
     style="fill:#2f4f4f;fill-opacity:1;stroke-width:0.2538465" />
  <path
     d="m 71.254096,93.362253 c 0,-3.118979 2.560888,-5.655681 5.786693,-5.887433 l 1.810445,-8.584424 c -3.870358,1.49479 -8.518654,2.608159 -13.855284,2.608159 -5.336631,0 -9.984928,-1.113369 -13.855284,-2.608159 l 1.810442,8.584424 c 3.22988,0.231752 5.790771,2.768454 5.790771,5.887433 0,2.574353 -1.749347,4.749915 -4.170738,5.568761 v 8.274456 h 20.853693 v -8.274456 c -2.421393,-0.818846 -4.170738,-2.994408 -4.170738,-5.568761 z m 0,0"
     id="path16"
     inkscape:connector-curvature="0"
     style="fill:#2f4f4f;fill-opacity:1;stroke-width:0.2538465" />
  <path
     d="m 83.563678,76.716771 -2.485539,11.78451 c 1.62003,1.073777 2.688172,2.849565 2.688172,4.860972 0,2.574353 -1.749348,4.749915 -4.170739,5.568761 v 21.231236 c 2.402044,-1.02742 4.354022,-2.89303 5.380415,-5.32736 l 7.127727,-16.902336 c 1.386851,-3.28505 2.089444,-6.743941 2.089444,-10.281989 v -0.219199 c 0,-5.42876 -1.681127,-10.482851 -4.539347,-14.762503 -1.354267,1.105644 -3.412143,2.596573 -6.090133,4.047908 z m 0,0"
     id="path18"
     inkscape:connector-curvature="0"
     style="fill:#2f4f4f;fill-opacity:1;stroke-width:0.2538465" />
  <path
     d="m 54.571141,93.362253 c 0,1.092118 -0.933734,1.977594 -2.08537,1.977594 -1.151636,0 -2.085368,-0.885476 -2.085368,-1.977594 0,-1.092138 0.933732,-1.977614 2.085368,-1.977614 1.151636,0 2.08537,0.885476 2.08537,1.977614 z m 0,0"
     id="path20"
     inkscape:connector-curvature="0"
     style="fill:#2f4f4f;fill-opacity:1;stroke-width:0.2538465" />
  <path
     d="m 79.595572,93.362253 c 0,1.092118 -0.933733,1.977594 -2.085368,1.977594 -1.151638,0 -2.08537,-0.885476 -2.08537,-1.977594 0,-1.092138 0.933732,-1.977614 2.08537,-1.977614 1.151635,0 2.085368,0.885476 2.085368,1.977614 z m 0,0"
     id="path22"
     inkscape:connector-curvature="0"
     style="fill:#2f4f4f;fill-opacity:1;stroke-width:0.2538465" />
  <path
     d="m 54.571141,121.04097 c 0.0438,0 0.08555,0.0105 0.129317,0.0105 H 75.29348 c 0.0438,0 0.08554,-0.008 0.129315,-0.0105 v -9.87836 H 54.571141 Z m 0,0"
     id="path24"
     inkscape:connector-curvature="0"
     style="fill:#2f4f4f;fill-opacity:1;stroke-width:0.2538465" />
  <path
     d="m 31.632079,87.650565 v -0.219199 c 0,-2.853428 0.437844,-5.608359 1.188292,-8.24066 l -5.359033,1.550798 V 97.9567 l 6.685806,1.743913 -0.127281,-0.303195 C 32.435473,95.64788 31.632079,91.695575 31.632079,87.650565 Z m 0,0"
     id="path26"
     inkscape:connector-curvature="0"
     style="fill:#2f4f4f;fill-opacity:1;stroke-width:0.2538465" />
  <path
     d="M 102.53464,6.347668 H 27.461338 c -1.150619,0 -2.085369,0.8864514 -2.085369,1.9776077 V 18.213296 H 104.62002 V 8.3252757 c 0,-1.0892286 -0.93375,-1.9776077 -2.08538,-1.9776077 z m -68.817193,7.910418 h -4.17074 v -3.955208 h 4.17074 z m 8.341478,0 h -4.170738 v -3.955208 h 4.170738 z m 8.341478,0 h -4.170739 v -3.955208 h 4.170739 z m 0,0"
     id="path28"
     inkscape:connector-curvature="0"
     style="fill:#2f4f4f;fill-opacity:1;stroke-width:0.2538465" />
  <path
     d="m 46.229664,93.362253 c 0,-2.013343 1.068138,-3.789129 2.688171,-4.860972 l -2.485541,-11.78451 c -2.675956,-1.451335 -4.735866,-2.942264 -6.089117,-4.047908 -2.859235,4.277725 -4.540361,9.331816 -4.540361,14.760576 v 0.219191 c 0,3.538057 0.70259,6.996928 2.089442,10.281999 l 7.127727,16.902341 c 1.026392,2.43433 2.97837,4.30186 5.380418,5.32735 V 98.931014 c -2.421394,-0.818846 -4.170739,-2.994408 -4.170739,-5.568761 z m 0,0"
     id="path30"
     inkscape:connector-curvature="0"
     style="fill:#2f4f4f;fill-opacity:1;stroke-width:0.2538465" />
  <path
     d="m 25.375969,61.720581 h 20.244782 c 5.47002,-3.717659 12.149719,-5.93281 19.377237,-5.93281 7.227514,0 13.907213,2.215151 19.377233,5.93281 H 104.62002 V 22.168505 H 25.375969 Z M 100.44928,39.966934 H 87.937049 V 36.011732 H 100.44928 Z M 71.254096,28.101314 h 29.195184 v 3.955209 H 71.254096 Z m 0,7.910418 h 12.512215 v 3.955202 H 71.254096 Z m 0,7.910411 h 29.195184 v 3.95521 H 71.254096 Z M 58.741879,39.966934 H 46.229664 V 36.011732 H 58.741879 Z M 29.546707,28.101314 h 29.195172 v 3.955209 H 29.546707 Z m 0,7.910418 h 12.512218 v 3.955202 H 29.546707 Z m 0,7.910411 h 29.195172 v 3.95521 H 29.546707 Z m 0,0"
     id="path32"
     inkscape:connector-curvature="0"
     style="fill:#2f4f4f;fill-opacity:1;stroke-width:0.2538465" />
  <path
     d="m 42.830755,69.461045 c 2.817489,2.325229 10.021585,7.362913 20.081863,7.999256 v -5.849765 h 4.170738 v 5.851699 C 77.187416,76.827811 84.365039,71.794972 87.169289,69.466844 82.235886,63.998492 75.106121,60.388012 67.083356,59.845333 v 3.854785 h -4.170738 v -3.854785 c -8.020733,0.540753 -15.148458,4.151232 -20.081863,9.615712 z m 0,0"
     id="path34"
     inkscape:connector-curvature="0"
     style="fill:#2f4f4f;fill-opacity:1;stroke-width:0.2538465" />
  <path
     d="m 121.30296,55.787771 h 4.17075 v 3.95521 h -4.17075 z m 0,0"
     id="path36"
     inkscape:connector-curvature="0"
     style="fill:#2f4f4f;fill-opacity:1;stroke-width:0.2538465" />
  <path
     d="m 121.30296,65.675791 h 4.17075 v 3.95521 h -4.17075 z m 0,0"
     id="path38"
     inkscape:connector-curvature="0"
     style="fill:#2f4f4f;fill-opacity:1;stroke-width:0.2538465" />
  <path
     d="m 121.30296,75.56381 h 4.17075 v 3.955209 h -4.17075 z m 0,0"
     id="path40"
     inkscape:connector-curvature="0"
     style="fill:#2f4f4f;fill-opacity:1;stroke-width:0.2538465" />
  <path
     d="m 4.5222768,55.787771 h 4.1707375 v 3.95521 H 4.5222768 Z m 0,0"
     id="path42"
     inkscape:connector-curvature="0"
     style="fill:#2f4f4f;fill-opacity:1;stroke-width:0.2538465" />
  <path
     d="m 4.5222768,65.675791 h 4.1707375 v 3.95521 H 4.5222768 Z m 0,0"
     id="path44"
     inkscape:connector-curvature="0"
     style="fill:#2f4f4f;fill-opacity:1;stroke-width:0.2538465" />
  <path
     d="m 4.5222768,75.56381 h 4.1707375 v 3.955209 H 4.5222768 Z m 0,0"
     id="path46"
     inkscape:connector-curvature="0"
     style="fill:#2f4f4f;fill-opacity:1;stroke-width:0.2538465" />
  <rect
     style="opacity:1;fill:#2f4f4f;fill-opacity:1;stroke:none;stroke-width:0;stroke-linecap:round;stroke-linejoin:bevel;stroke-miterlimit:4;stroke-dasharray:none;stroke-opacity:0.57856092"
     id="rect837"
     width="4.1707401"
     height="3.9552081"
     x="29.546707"
     y="10.302877" />
  <rect
     style="opacity:1;fill:#2f4f4f;fill-opacity:1;stroke:none;stroke-width:0;stroke-linecap:round;stroke-linejoin:bevel;stroke-miterlimit:4;stroke-dasharray:none;stroke-opacity:0.57856092"
     id="rect837-6"
     width="4.1707401"
     height="3.9552081"
     x="37.888187"
     y="10.302878" />
  <rect
     style="opacity:1;fill:#2f4f4f;fill-opacity:1;stroke:none;stroke-width:0;stroke-linecap:round;stroke-linejoin:bevel;stroke-miterlimit:4;stroke-dasharray:none;stroke-opacity:0.57856092"
     id="rect837-3"
     width="4.1707401"
     height="3.9552081"
     x="46.229664"
     y="10.302878" />
</svg>
